<mxfile host="app.diagrams.net" modified="2023-04-23T13:19:35.993Z" agent="Mozilla/5.0 (Macintosh; Intel Mac OS X 10_15_7) AppleWebKit/605.1.15 (KHTML, like Gecko) Version/15.3 Safari/605.1.15" version="21.2.1" etag="IHUOzU-2tak6zf5V0E-V" type="github">
  <diagram name="第 1 页" id="zAsWK2Sjt5K_OKMGBDsm">
    <mxGraphModel>
      <root>
        <mxCell id="0" />
        <mxCell id="1" parent="0" />
      </root>
    </mxGraphModel>
  </diagram>
</mxfile>
